# xmcd
#
# Track frame offsets:
#	150
#	12423
#	27808
#	40535
#	53433
#	65203
#	76888
#	94358
#	109473
#	128057
#	141997
#	152504
#	166899
#	180887
#	196510
#	211795
#	228590
#	245747
#	260177
#	272740
#	289162
#	304404
#	318694
#	331336
#	344694
# Disc length: 4770 seconds
# Revision: 2
# Processed by: cddbd v1.5.2PL0 Copyright (c) Steve Scherf et al.
#
# Submitted via: libkcddb 0.31
#
DISCID=6e12a019
DTITLE=Mark Chesnutt - 25 Greatest Hits
DYEAR=2007
DGENRE=Unknown
TTITLE0=It's a little to late
TTITLE1=This side of the door
TTITLE2=Don't know why I do it
TTITLE3=What are we doing in love
TTITLE4=Goin to the big D
TTITLE5=Useless
TTITLE6=Fallin never fellt so good
TTITLE7=My way back home
TTITLE8=Heard it in a love song
TTITLE9=I'm gone
TTITLE10=You can't do me this way
TTITLE11=Think like a woman
TTITLE12=Let's talk about your love
TTITLE13=Good night to be lonely
TTITLE14=Lucky man
TTITLE15=Gonna get a life
TTITLE16=Vicky Vance gotta dance
TTITLE17=It wouldn't hurt to have wings
TTITLE18=Talking to Hank
TTITLE19=I might even quit lovin you
TTITLE20=Jolie
TTITLE21=What was you thinking
TTITLE22=Your love is a miracle
TTITLE23=It sure is monday
TTITLE24=Goodbye hartache
EXTD=
EXTT0=
EXTT1=
EXTT2=
EXTT3=
EXTT4=
EXTT5=
EXTT6=
EXTT7=
EXTT8=
EXTT9=
EXTT10=
EXTT11=
EXTT12=
EXTT13=
EXTT14=
EXTT15=
EXTT16=
EXTT17=
EXTT18=
EXTT19=
EXTT20=
EXTT21=
EXTT22=
EXTT23=
EXTT24=
PLAYORDER=
